<?xml version="1.0" standalone="no"?>
<!DOCTYPE svg PUBLIC "-//W3C//DTD SVG 20010904//EN"
 "http://www.w3.org/TR/2001/REC-SVG-20010904/DTD/svg10.dtd">
<svg  version="1.0" xmlns="http://www.w3.org/2000/svg"
 width="222.000000pt" height="191.000000pt" viewBox="0 0 222.000000 191.000000"
 preserveAspectRatio="xMidYMid meet">

<g  transform="translate(0.000000,191.000000) scale(0.100000,-0.100000)"
fill="#000000" stroke="none">
<path  d="M0 955 l0 -955 1110 0 1110 0 0 955 0 955 -1110 0 -1110 0 0 -955z
m1949 649 c21 -26 21 -35 21 -590 l0 -564 60 0 c56 0 60 -2 60 -23 0 -16 -15
-35 -49 -60 l-48 -37 -885 0 -885 0 -46 36 c-33 25 -47 44 -47 60 0 23 4 24
60 24 l60 0 0 567 0 567 22 23 21 23 818 0 818 0 20 -26z"/>
<path d="M317 1563 c-4 -3 -7 -255 -7 -560 l0 -553 313 0 c301 0 313 -1 325
-20 11 -19 23 -20 162 -20 139 0 151 1 162 20 12 19 24 20 325 20 l313 0 -2
558 -3 557 -791 3 c-435 1 -794 -1 -797 -5z m883 -125 c0 -2 -31 -82 -68 -178
-59 -153 -71 -175 -91 -178 -17 -3 -22 0 -19 10 115 308 133 348 156 348 12 0
22 -1 22 -2z m-202 -113 c-2 -1 -43 -23 -93 -48 l-90 -45 93 -46 c70 -35 92
-51 92 -66 0 -11 -3 -20 -7 -20 -5 0 -59 25 -120 57 -78 40 -113 63 -113 75 0
13 35 35 118 77 106 54 117 57 120 39 2 -11 2 -21 0 -23z m462 -93 c0 -12 -34
-34 -115 -75 -63 -31 -117 -57 -120 -57 -3 0 -5 9 -5 20 0 15 22 31 92 66 l93
47 -93 46 c-76 37 -92 50 -92 68 0 22 6 20 120 -37 85 -43 120 -65 120 -78z
m-462 -281 c3 -20 -1 -21 -97 -21 -97 0 -118 6 -108 33 3 8 34 11 103 10 92
-2 99 -3 102 -22z m160 1 c3 -19 -1 -22 -32 -22 -31 0 -36 3 -36 23 0 18 5 22
32 21 26 -1 34 -6 36 -22z m167 2 c0 -15 -8 -20 -37 -22 -32 -3 -38 0 -38 16
0 26 5 29 42 27 25 -1 33 -6 33 -21z m-385 -64 c0 -18 -7 -20 -75 -20 -68 0
-75 2 -75 20 0 18 7 20 75 20 68 0 75 -2 75 -20z m190 0 c0 -18 -7 -20 -70
-20 -63 0 -70 2 -70 20 0 18 7 20 70 20 63 0 70 -2 70 -20z m160 0 c0 -18 -7
-20 -70 -20 -63 0 -70 2 -70 20 0 18 7 20 70 20 63 0 70 -2 70 -20z m200 0 c0
-18 -7 -20 -70 -20 -63 0 -70 2 -70 20 0 18 7 20 70 20 63 0 70 -2 70 -20z
m-527 -71 c7 -26 -7 -31 -74 -27 -47 3 -54 6 -57 26 -3 21 0 22 61 22 57 0 65
-2 70 -21z m-23 -59 c0 -18 -7 -20 -75 -20 -68 0 -75 2 -75 20 0 18 7 20 75
20 68 0 75 -2 75 -20z m190 0 c0 -18 -7 -20 -55 -20 -48 0 -55 2 -55 20 0 18
7 20 55 20 48 0 55 -2 55 -20z m0 -65 l0 -25 -164 0 c-165 0 -184 4 -172 35 4
12 35 15 171 15 l165 0 0 -25z m228 -2 c3 -22 0 -23 -67 -23 -69 0 -71 1 -71
25 0 26 1 26 68 23 61 -3 67 -5 70 -25z m-198 -63 c0 -19 -7 -20 -200 -20
-193 0 -200 1 -200 20 0 19 7 20 200 20 193 0 200 -1 200 -20z m260 0 c0 -18
-7 -20 -70 -20 -63 0 -70 2 -70 20 0 18 7 20 70 20 63 0 70 -2 70 -20z"/>
</g>
</svg>
